<svg height="24" viewBox="0 0 38 24" width="38" xmlns="http://www.w3.org/2000/svg"><path d="m35 0h-32c-1.7 0-3 1.3-3 3v18c0 1.7 1.4 3 3 3h32c1.7 0 3-1.3 3-3v-18c0-1.7-1.4-3-3-3z" opacity=".07"/><path d="m35 1c1.1 0 2 .9 2 2v18c0 1.1-.9 2-2 2h-32c-1.1 0-2-.9-2-2v-18c0-1.1.9-2 2-2z" fill="#fff"/><path d="m23.9 8.3c.2-1 0-1.7-.6-2.3-.6-.7-1.7-1-3.1-1h-4.1c-.3 0-.5.2-.6.5l-1.5 10.1c0 .2.1.4.3.4h2.7l.4-3.4 1.8-2.2z" fill="#003087"/><path d="m23.9 8.3-.2.2c-.5 2.8-2.2 3.8-4.6 3.8h-1.1c-.3 0-.5.2-.6.5l-.6 3.9-.2 1c0 .2.1.4.3.4h2.1c.3 0 .5-.2.5-.4v-.1l.4-2.4v-.1c0-.2.3-.4.5-.4h.3c2.1 0 3.7-.8 4.1-3.2.2-1 .1-1.8-.4-2.4-.1-.5-.3-.7-.5-.8z" fill="#3086c8"/><path d="m23.3 8.1c-.1-.1-.2-.1-.3-.1s-.2 0-.3-.1c-.3-.1-.7-.1-1.1-.1h-3c-.1 0-.2 0-.2.1-.2.1-.3.2-.3.4l-.7 4.4v.1c0-.3.3-.5.6-.5h1.3c2.5 0 4.1-1 4.6-3.8v-.2c-.1-.1-.3-.2-.5-.2z" fill="#012169"/></svg>